<?xml version="1.0" standalone="no"?><!DOCTYPE svg PUBLIC "-//W3C//DTD SVG 1.1//EN" "http://www.w3.org/Graphics/SVG/1.1/DTD/svg11.dtd"><svg t="1667394269564" class="icon" viewBox="0 0 1024 1024" version="1.1" xmlns="http://www.w3.org/2000/svg" p-id="1596" xmlns:xlink="http://www.w3.org/1999/xlink" width="200" height="200"><path d="M584.675 134.868C561.143 130.36 536.847 128 512 128a392 392 0 0 0-3.783 0.018l-24.19 169.685A32 32 0 0 1 466.68 321.8l-99.807 49.992-50.81 127.247a32 32 0 0 1-24.45 19.697l-162.145 27.069c8.105 92.926 49.308 176.368 111.754 238.473L223.089 657.52c-2.323-16.238 8.01-31.603 23.924-35.578l226.491-56.558a32 32 0 0 1 30.368 8.407l96.768 96.662a8 8 0 0 0 8.728 1.726l150.425-62.602 31.42-0.772c17.669-0.434 32.343 13.536 32.777 31.204 0.007 0.262 0.01 0.524 0.01 0.786v95.11c45.314-63.03 72-140.351 72-223.906 0-40.5-6.27-79.535-17.891-116.188l-103.215 27.656a32 32 0 0 1-23.36-2.684l-127.842-68.287a32 32 0 0 1-16.712-24.553l-22.305-193.076z m58.509 16.124l18.31 159.176 109.262 56.623 86.458-23.166c-43.44-88.897-120.207-158.532-214.03-192.633z m-336.132 685.8C366.357 874.295 436.644 896 512 896c94.536 0 181.093-34.162 248-90.814V683.96a8 8 0 0 0-11.074-7.386l-138.21 57.53a32 32 0 0 1-34.913-6.903l-99.24-99.132a8 8 0 0 0-7.592-2.102l-178.437 44.563a8 8 0 0 0-5.981 8.894l22.499 157.37zM128.65 489.473l140.726-23.504 49.219-123.244a32 32 0 0 1 15.386-16.744l96.748-48.46 20.65-144.762C275.347 160.675 139.137 308.212 128.65 489.47zM512 960C264.576 960 64 759.424 64 512S264.576 64 512 64s448 200.576 448 448-200.576 448-448 448z" p-id="1597" fill="#1296db"></path></svg>