<?xml version="1.0" standalone="no"?><!DOCTYPE svg PUBLIC "-//W3C//DTD SVG 1.1//EN" "http://www.w3.org/Graphics/SVG/1.1/DTD/svg11.dtd"><svg t="1667223134923" class="icon" viewBox="0 0 1194 1024" version="1.1" xmlns="http://www.w3.org/2000/svg" p-id="1911" xmlns:xlink="http://www.w3.org/1999/xlink" width="233.203125" height="200"><path d="M576.273067 1021.252267a509.9008 509.9008 0 1 1 509.9008-509.9008 509.9008 509.9008 0 0 1-509.9008 509.9008z m399.496533-487.355734a400.093867 400.093867 0 0 0-343.722667 373.76 400.093867 400.093867 0 0 0 343.722667-373.76z m-779.946667-147.5584a400.469333 400.469333 0 0 0 435.2-271.530666 397.397333 397.397333 0 0 0-435.217066 271.530666zM736.187733 144.247467a509.815467 509.815467 0 0 1-559.684266 349.866666c-0.238933 5.751467-0.8704 11.400533-0.8704 17.220267A400.401067 400.401067 0 0 0 522.769067 907.946667a509.269333 509.269333 0 0 1 444.501333-483.157334 401.271467 401.271467 0 0 0-231.082667-280.541866z" p-id="1912"></path></svg>