<?xml version="1.0" standalone="no"?><!DOCTYPE svg PUBLIC "-//W3C//DTD SVG 1.1//EN" "http://www.w3.org/Graphics/SVG/1.1/DTD/svg11.dtd"><svg t="1667394269564" class="icon" viewBox="0 0 1024 1024" version="1.1" xmlns="http://www.w3.org/2000/svg" p-id="1596" xmlns:xlink="http://www.w3.org/1999/xlink" width="200" height="200"><path fill="#1296db" p-id="1597" d="m595.47605,81.91291c-26.86745,-5.14697 -54.60719,-7.84148 -82.97604,-7.84148a447.56252,447.56252 0 0 0 -4.31921,0.02055l-27.61872,193.73634a36.53572,36.53572 0 0 1 -19.80578,27.51254l-113.95376,57.07792l-58.01187,145.28313a36.53572,36.53572 0 0 1 -27.91557,22.48887l-185.12761,30.90579c9.25381,106.09743 56.29697,201.3666 127.59414,272.27443l-20.70319,-144.72482c-2.65226,-18.53959 9.14535,-36.08244 27.31501,-40.62087l258.59409,-64.57459a36.53572,36.53572 0 0 1 34.67239,9.59862l110.484,110.36298a9.13393,9.13393 0 0 0 9.96512,1.97065l171.74641,-71.47528l35.87351,-0.88142c20.17342,-0.49552 36.92733,15.45461 37.42285,35.62689c0.00799,0.29914 0.01142,0.59827 0.01142,0.89741l0,108.591c51.73686,-71.96394 82.20536,-160.24451 82.20536,-255.64269c0,-46.24052 -7.15872,-90.80838 -20.42689,-132.65662l-117.84481,31.57599a36.53572,36.53572 0 0 1 -26.67107,-3.06443l-145.96247,-77.96608a36.53572,36.53572 0 0 1 -19.08078,-28.03317l-25.46654,-220.44281l0,0.00114zm66.80213,18.40943l20.90528,181.73778l124.74892,64.64881l98.71265,-26.44957c-49.59723,-101.49736 -137.24527,-181.0025 -244.36685,-219.93702zm-383.77572,783.00605c67.71096,42.81872 147.96051,67.60021 233.99756,67.60021c107.93564,0 206.76132,-39.00416 283.1518,-103.68608l0,-138.40871a9.13393,9.13393 0 0 0 -12.64364,-8.4329l-157.80004,65.68437a36.53572,36.53572 0 0 1 -39.86161,-7.88144l-113.30639,-113.18308a9.13393,9.13393 0 0 0 -8.6681,-2.39994l-203.72886,50.87941a9.13393,9.13393 0 0 0 -6.82875,10.15465l25.68803,179.6758l0,-0.00228zm-203.6889,-396.54838l160.67266,-26.83548l56.19536,-140.71274a36.53572,36.53572 0 0 1 17.56683,-19.11731l110.46117,-55.32877l23.57695,-165.28073c-200.98297,31.87284 -356.49953,200.3219 -368.47297,407.27161l0,0.00343zm437.68646,537.22002c-282.49415,0 -511.50002,-229.00587 -511.50002,-511.50002s229.00587,-511.50002 511.50002,-511.50002s511.50002,229.00587 511.50002,511.50002s-229.00587,511.50002 -511.50002,511.50002z"></path></svg>