<?xml version="1.0" standalone="no"?><!DOCTYPE svg PUBLIC "-//W3C//DTD SVG 1.1//EN" "http://www.w3.org/Graphics/SVG/1.1/DTD/svg11.dtd"><svg t="1667224375857" class="icon" viewBox="0 0 1024 1024" version="1.1" xmlns="http://www.w3.org/2000/svg" p-id="1228" xmlns:xlink="http://www.w3.org/1999/xlink" width="200" height="200"><path d="M950.613333 720.533333L742.186667 512l196.906666-196.906667c12.48-12.48 12.48-32.746667 0-45.226666L754.24 84.906667c-12.48-12.48-32.746667-12.48-45.226667 0L512 281.813333 442.453333 212.266667c-0.106667-0.106667-0.106667-0.213333-0.213333-0.213334-0.106667-0.106667-0.213333-0.106667-0.213333-0.213333L303.466667 73.386667c-12.48-12.48-32.746667-12.48-45.226667 0L73.386667 258.24c-12.48 12.48-12.48 32.746667 0 45.226667L281.92 512 84.906667 708.906667c-5.973333 5.973333-9.386667 14.08-9.386667 22.613333v184.853333c0 17.706667 14.293333 32 32 32h184.853333c8.533333 0 16.64-3.413333 22.613334-9.386666L512 742.08l208.533333 208.533333c6.293333 6.293333 14.4 9.386667 22.613334 9.386667s16.426667-3.093333 22.613333-9.386667l184.853333-184.853333c12.48-12.48 12.48-32.746667 0-45.226667zM731.52 152.853333l139.626667 139.626667-93.44 93.44-139.52-139.733333 93.333333-93.333334z m-590.293333 128l139.626666-139.626666 93.44 93.44-46.72 46.72c-12.48 12.48-12.48 32.746667 0 45.226666 6.293333 6.293333 14.4 9.386667 22.613334 9.386667s16.426667-3.093333 22.613333-9.386667l46.72-46.72 47.253333 47.146667-139.626666 139.733333-185.92-185.92z m137.92 603.626667H139.52V744.853333l453.333333-453.333333 139.626667 139.626667-453.333333 453.333333z m464-1.706667L557.226667 696.853333l139.626666-139.626666 47.146667 47.146666-46.72 46.72c-12.48 12.48-12.48 32.746667 0 45.226667 6.293333 6.293333 14.4 9.386667 22.613333 9.386667s16.426667-3.093333 22.613334-9.386667l46.72-46.72 93.44 93.44-139.52 139.733333z" p-id="1229"></path></svg>