<?xml version="1.0" standalone="no"?><!DOCTYPE svg PUBLIC "-//W3C//DTD SVG 1.1//EN" "http://www.w3.org/Graphics/SVG/1.1/DTD/svg11.dtd"><svg t="1667536672855" class="icon" viewBox="0 0 1024 1024" version="1.1" xmlns="http://www.w3.org/2000/svg" p-id="1917" xmlns:xlink="http://www.w3.org/1999/xlink" width="200" height="200"><path d="M111.512 797.814H51.924c-17.412 0-31.526-14.116-31.526-31.526V257.712c0-17.412 14.116-31.526 31.526-31.526h59.588c17.412 0 31.526 14.116 31.526 31.526v508.578c0.002 17.41-14.114 31.524-31.526 31.524zM972.076 797.814h-58.55c-17.412 0-31.526-14.116-31.526-31.526V257.712c0-17.412 14.116-31.526 31.526-31.526h58.55c17.412 0 31.526 14.116 31.526 31.526v508.578c0 17.41-14.116 31.524-31.526 31.524z" fill="#FFAD61" p-id="1918"></path><path d="M972.076 205.788h-58.55c-28.632 0-51.924 23.292-51.924 51.924v19.788H163.438v-19.788c0-28.632-23.294-51.924-51.926-51.924H51.924C23.292 205.788 0 229.08 0 257.712v508.578c0 28.632 23.292 51.924 51.924 51.924h59.588c28.632 0 51.926-23.292 51.926-51.924v-19.788h698.164v19.788c0 28.632 23.292 51.924 51.924 51.924h58.55c28.632 0 51.924-23.292 51.924-51.924V257.712c0-28.632-23.292-51.924-51.924-51.924zM122.642 766.288a11.14 11.14 0 0 1-11.13 11.128H51.924a11.14 11.14 0 0 1-11.128-11.128V257.712a11.14 11.14 0 0 1 11.128-11.128h59.588a11.14 11.14 0 0 1 11.13 11.128v508.576z m40.796-60.584V318.296h698.164v387.406H163.438z m738.96-447.992a11.14 11.14 0 0 1 11.128-11.128h58.55a11.14 11.14 0 0 1 11.128 11.128v508.578a11.14 11.14 0 0 1-11.128 11.128h-58.55a11.14 11.14 0 0 1-11.128-11.128V257.712z" fill="#534741" p-id="1919"></path><path d="M554.612 639.186h-10.394c-11.264 0-20.398 9.134-20.398 20.398s9.134 20.398 20.398 20.398h10.394c11.264 0 20.398-9.134 20.398-20.398s-9.134-20.398-20.398-20.398zM465.23 639.186h-247.36c-11.264 0-20.398 9.134-20.398 20.398s9.134 20.398 20.398 20.398h247.362c11.264 0 20.398-9.134 20.398-20.398s-9.134-20.398-20.4-20.398z" fill="#534741" p-id="1920"></path></svg>