<?xml version="1.0" encoding="iso-8859-1"?>
<!-- Generator: Adobe Illustrator 19.0.0, SVG Export Plug-In . SVG Version: 6.00 Build 0)  -->
<svg version="1.1" id="Layer_1" xmlns="http://www.w3.org/2000/svg" xmlns:xlink="http://www.w3.org/1999/xlink" x="0px" y="0px"
	 viewBox="0 0 489.739 489.739" style="enable-background:new 0 0 489.739 489.739;" xml:space="preserve">
<g>
	<g>
		<path d="M467.478,222.609h-89.043c-12.288,0-22.261,9.951-22.261,22.261v22.261H222.609V133.565h22.261
			c12.288,0,22.261-9.951,22.261-22.261V22.261C267.13,9.951,257.158,0,244.87,0H22.261C9.973,0,0,9.951,0,22.261v89.043
			c0,12.31,9.973,22.261,22.261,22.261h22.261v209.875c0,56.12,45.657,101.777,101.777,101.777h209.875v22.261
			c0,12.31,9.973,22.261,22.261,22.261h89.043c12.288,0,22.261-9.951,22.261-22.261V244.87
			C489.739,232.559,479.766,222.609,467.478,222.609z M66.783,89.043H44.522V44.522h178.087v44.522h-22.261H66.783z
			 M445.217,445.217h-44.522v-22.261V289.391V267.13h44.522V445.217z"/>
	</g>
</g>
<g>
</g>
<g>
</g>
<g>
</g>
<g>
</g>
<g>
</g>
<g>
</g>
<g>
</g>
<g>
</g>
<g>
</g>
<g>
</g>
<g>
</g>
<g>
</g>
<g>
</g>
<g>
</g>
<g>
</g>
</svg>
