<?xml version="1.0" standalone="no"?><!DOCTYPE svg PUBLIC "-//W3C//DTD SVG 1.1//EN" "http://www.w3.org/Graphics/SVG/1.1/DTD/svg11.dtd"><svg t="1667394407150" class="icon" viewBox="0 0 1024 1024" version="1.1" xmlns="http://www.w3.org/2000/svg" p-id="3402" xmlns:xlink="http://www.w3.org/1999/xlink" width="200" height="200"><path d="M707.06080012 567.43186699v200.39413227H306.27253322V567.43186699z m300.59119957-250.49266711H556.76520033v200.39413345h375.73899945a25.04926623 25.04926623 0 0 1 0 50.09853366h-175.34486718v200.39413227h250.49266709zM5.68133365 567.43186699v200.39413227h250.49266709V567.43186699z m0-50.09853366h500.98533302V291.88993365a25.04926623 25.04926623 0 0 1 25.04926623-25.04926625h175.34486722V16.34800031H306.27253322v250.49266709h125.24633356a25.04926623 25.04926623 0 0 1 0 50.09853248H5.68133365z m500.98533302 300.59119957H5.68133365v137.77096609a62.69361725 62.69361725 0 0 0 62.62316736 62.62316736h438.36216566z m50.09853366 0v200.39413345h388.263632a62.69361725 62.69361725 0 0 0 62.62316736-62.62316736v-137.77096609zM256.17400074 266.8406674V16.34800031H68.30450101a62.69361725 62.69361725 0 0 0-62.62316736 62.62316736v187.86949973z m500.98533186 0h250.49266709V78.97116767a62.69361725 62.69361725 0 0 0-62.62316736-62.62316736h-187.86949973z" fill="#1296db" p-id="3403"></path></svg>