<?xml version="1.0" standalone="no"?><!DOCTYPE svg PUBLIC "-//W3C//DTD SVG 1.1//EN" "http://www.w3.org/Graphics/SVG/1.1/DTD/svg11.dtd"><svg t="1667223175470" class="icon" viewBox="0 0 1024 1024" version="1.1" xmlns="http://www.w3.org/2000/svg" p-id="2684" xmlns:xlink="http://www.w3.org/1999/xlink" width="200" height="200"><path d="M482.773333 66.517333l148.181334 151.168a21.333333 21.333333 0 0 1 0 29.866667l-147.84 150.826667a21.333333 21.333333 0 0 1-28.16 2.090666l-2.346667-2.090666-27.050667-27.605334a21.333333 21.333333 0 0 1 0-29.866666l69.888-71.338667a304.64 304.64 0 1 0 318.421334 352.682667l1.024-6.826667c0.170667-1.408 0.426667-3.285333 0.64-5.632a21.333333 21.333333 0 0 1 22.314666-19.114667l42.666667 2.261334a21.333333 21.333333 0 0 1 20.224 22.4l-0.085333 1.024-1.194667 10.496A389.973333 389.973333 0 1 1 484.821333 184.746667l-59.306666-60.458667a21.333333 21.333333 0 0 1 0-29.866667l27.093333-27.605333a21.333333 21.333333 0 0 1 30.165333-0.298667z" p-id="2685"></path></svg>