<?xml version="1.0" standalone="no"?><!DOCTYPE svg PUBLIC "-//W3C//DTD SVG 1.1//EN" "http://www.w3.org/Graphics/SVG/1.1/DTD/svg11.dtd"><svg t="1667223166587" class="icon" viewBox="0 0 1024 1024" version="1.1" xmlns="http://www.w3.org/2000/svg" p-id="2530" xmlns:xlink="http://www.w3.org/1999/xlink" width="200" height="200"><path d="M541.226667 66.517333L393.045333 217.685333a21.333333 21.333333 0 0 0 0 29.866667l147.84 150.826667a21.333333 21.333333 0 0 0 28.16 2.090666l2.346667-2.090666 27.050667-27.605334a21.333333 21.333333 0 0 0 0-29.866666l-69.888-71.338667a304.64 304.64 0 1 1-318.421334 352.682667l-1.024-6.826667a176.554667 176.554667 0 0 1-0.64-5.632 21.333333 21.333333 0 0 0-22.314666-19.114667l-42.666667 2.261334a21.333333 21.333333 0 0 0-20.224 22.4l0.085333 1.024 1.194667 10.496A389.973333 389.973333 0 1 0 539.178667 184.746667l59.306666-60.458667a21.333333 21.333333 0 0 0 0-29.866667l-27.093333-27.605333a21.333333 21.333333 0 0 0-30.165333-0.298667z" p-id="2531"></path></svg>