<?xml version="1.0" standalone="no"?><!DOCTYPE svg PUBLIC "-//W3C//DTD SVG 1.1//EN" "http://www.w3.org/Graphics/SVG/1.1/DTD/svg11.dtd"><svg t="1667396906226" class="icon" viewBox="0 0 1024 1024" version="1.1" xmlns="http://www.w3.org/2000/svg" p-id="1518" xmlns:xlink="http://www.w3.org/1999/xlink" width="200" height="200"><path d="M712.39413345 562.09853366v200.39413227H311.60586655V562.09853366z m300.59119957-250.49266711H562.09853366v200.39413345h375.73899945a25.04926623 25.04926623 0 0 1 0 50.09853366h-175.34486718v200.39413227h250.49266709zM11.01466698 562.09853366v200.39413227h250.49266709V562.09853366z m0-50.09853366h500.98533302V286.55660032a25.04926623 25.04926623 0 0 1 25.04926623-25.04926625h175.34486722V11.01466698H311.60586655v250.49266709h125.24633356a25.04926623 25.04926623 0 0 1 0 50.09853248H11.01466698z m500.98533302 300.59119957H11.01466698v137.77096609a62.69361725 62.69361725 0 0 0 62.62316736 62.62316736h438.36216566z m50.09853366 0v200.39413345h388.263632a62.69361725 62.69361725 0 0 0 62.62316736-62.62316736v-137.77096609zM261.50733407 261.50733407V11.01466698H73.63783434a62.69361725 62.69361725 0 0 0-62.62316736 62.62316736v187.86949973z m500.98533186 0h250.49266709V73.63783434a62.69361725 62.69361725 0 0 0-62.62316736-62.62316736h-187.86949973z" fill="#1296db" p-id="1519"></path></svg>