<?xml version="1.0" standalone="no"?><!DOCTYPE svg PUBLIC "-//W3C//DTD SVG 1.1//EN" "http://www.w3.org/Graphics/SVG/1.1/DTD/svg11.dtd"><svg t="1667223126692" class="icon" viewBox="0 0 1024 1024" version="1.1" xmlns="http://www.w3.org/2000/svg" p-id="1756" xmlns:xlink="http://www.w3.org/1999/xlink" width="200" height="200"><path d="M343.04 430.08h225.28v51.2h-225.28z" fill="#525C6A" p-id="1757"></path><path d="M783.36 709.12l-130.56-130.56c23.04-35.84 35.84-79.36 35.84-122.88 0-128-102.4-230.4-230.4-230.4s-230.4 102.4-230.4 230.4 102.4 230.4 230.4 230.4c46.08 0 87.04-12.8 122.88-35.84l130.56 130.56c10.24 10.24 23.04 15.36 35.84 15.36s25.6-5.12 35.84-15.36c20.48-17.92 20.48-51.2 0-71.68z m-327.68-74.24c-99.84 0-179.2-79.36-179.2-179.2s79.36-179.2 179.2-179.2 179.2 79.36 179.2 179.2-79.36 179.2-179.2 179.2z" fill="#525C6A" p-id="1758"></path></svg>